<svg width="106" height="28" viewBox="0 0 106 28" fill="none" xmlns="http://www.w3.org/2000/svg">
<path d="M2.71949 5.50758H7.59336C7.5568 5.02498 7.45768 4.58057 7.29438 4.17598C7.13108 3.77138 6.91091 3.42446 6.63305 3.13442C6.35519 2.84437 6.01072 2.6177 5.60043 2.45521C5.18933 2.29191 4.72461 2.21067 4.20546 2.21067C3.55307 2.21067 2.98517 2.28054 2.50257 2.41865C2.01917 2.55758 1.62675 2.71195 1.32452 2.88094L0.798871 0.779136C1.22134 0.5614 1.75268 0.377787 2.39289 0.226672C3.0331 0.075557 3.66681 0 4.29564 0C5.12921 0 5.89941 0.115367 6.60543 0.344477C7.31226 0.574399 7.92159 0.951375 8.43505 1.47703C8.94852 2.00268 9.34987 2.68514 9.63991 3.52439C9.92996 4.36365 10.0746 5.38733 10.0746 6.59544C10.0746 7.85148 9.90558 8.90279 9.56761 9.74773C9.22963 10.5935 8.77628 11.2694 8.20838 11.7772C7.64048 12.2842 6.98809 12.6465 6.25201 12.8643C5.51512 13.082 4.74817 13.1901 3.95116 13.1901C3.26302 13.1901 2.63744 13.1291 2.07604 13.0089C1.51464 12.8887 1.06454 12.7489 0.726562 12.5921L1.37896 10.4359C1.65681 10.5691 2.03135 10.6926 2.50257 10.8072C2.97379 10.9217 3.51732 10.9794 4.13315 10.9794C4.60437 10.9794 5.03903 10.9128 5.43794 10.7804C5.83685 10.6479 6.18945 10.4391 6.49737 10.1556C6.80529 9.87204 7.05633 9.51212 7.24888 9.07747C7.44225 8.64281 7.56249 8.11715 7.61124 7.50132H2.71949V5.50758Z" fill="white"/>
<path d="M16.1282 5.96007H14.3343C14.262 6.81801 14.1775 7.66945 14.0808 8.5144C13.9842 9.36016 13.8298 10.1182 13.6186 10.7884C13.4073 11.4587 13.1205 12.0022 12.7582 12.419C12.3958 12.8358 11.9246 13.0438 11.3453 13.0438C10.645 13.0438 10.1494 12.9544 9.85938 12.7765L10.1494 10.8518C10.3428 10.9241 10.524 10.9607 10.6929 10.9607C10.9342 10.9607 11.1463 10.8575 11.3275 10.6511C11.5086 10.4448 11.6622 10.0743 11.7897 9.54052C11.9165 9.00593 12.0189 8.28042 12.0977 7.36398C12.1765 6.44754 12.2333 5.28492 12.2699 3.87695H18.4843V12.9357H16.129V5.96007H16.1282Z" fill="white"/>
<path d="M27.7754 12.1562C27.4131 12.4462 26.9207 12.6908 26.2992 12.8898C25.6769 13.0889 25.0156 13.1888 24.3152 13.1888C22.8536 13.1888 21.7845 12.7631 21.1085 11.9116C20.4317 11.0602 20.0938 9.89189 20.0938 8.40592C20.0938 6.8119 20.474 5.61598 21.2352 4.81897C21.9965 4.02196 23.0649 3.62305 24.442 3.62305C24.901 3.62305 25.3478 3.68398 25.7825 3.80422C26.2172 3.92528 26.6039 4.12433 26.9419 4.40218C27.2798 4.68004 27.5512 5.05458 27.7576 5.5258C27.9631 5.99702 28.0655 6.58279 28.0655 7.28312C28.0655 7.5366 28.05 7.80877 28.02 8.09882C27.9899 8.38886 27.9444 8.69109 27.8843 9.00469H22.4669C22.5027 9.76596 22.6985 10.3395 23.0535 10.7263C23.4085 11.113 23.9837 11.3064 24.7775 11.3064C25.2707 11.3064 25.7134 11.2308 26.1042 11.0797C26.4958 10.9286 26.7932 10.775 26.9979 10.6174L27.7754 12.1562ZM24.4135 5.50711C23.8009 5.50711 23.3476 5.69154 23.0527 6.05958C22.7586 6.42843 22.5815 6.91996 22.5213 7.53579H25.8727C25.9206 6.8834 25.8215 6.38212 25.5753 6.03195C25.33 5.6826 24.9424 5.50711 24.4135 5.50711Z" fill="white"/>
<path d="M32.7242 9.18548H32.0905V12.9357H29.7344V3.87695H32.0897V7.73607L32.6511 7.48259L34.7707 3.87695H37.2893L35.0973 7.31929L34.1736 8.00743L35.1883 8.71426L37.6346 12.9357H34.934L32.7242 9.18548Z" fill="white"/>
<path d="M45.1144 5.96088H42.56V12.9357H40.1325V5.96088H37.5781V3.87695H45.1152V5.96088H45.1144Z" fill="white"/>
<path d="M46.1641 3.87653H47.8856L48.157 4.96358H48.2293C48.5429 4.50455 48.915 4.16657 49.3432 3.94884C49.7721 3.7311 50.2945 3.62305 50.9104 3.62305C52.0454 3.62305 52.8968 3.98296 53.4647 4.70116C54.0326 5.42018 54.3162 6.57629 54.3162 8.17031C54.3162 8.94376 54.226 9.64084 54.0448 10.2632C53.8636 10.8855 53.5947 11.4136 53.2388 11.8483C52.8822 12.2829 52.4475 12.6152 51.9341 12.8443C51.4206 13.0734 50.8316 13.1888 50.1678 13.1888C49.7933 13.1888 49.4853 13.162 49.244 13.1075C49.0019 13.0531 48.7606 12.9654 48.5193 12.8451V16.5596H46.1641V3.87653ZM50.2044 5.61598C49.7453 5.61598 49.3862 5.73053 49.1262 5.96046C48.8663 6.19038 48.664 6.53404 48.5193 6.99308V10.7612C48.6883 10.8944 48.8728 11.0001 49.0718 11.0781C49.2709 11.1569 49.5341 11.1959 49.8599 11.1959C50.5358 11.1959 51.0436 10.9578 51.3816 10.4801C51.7196 10.0032 51.8886 9.21512 51.8886 8.11588C51.8886 7.31887 51.7553 6.70303 51.4896 6.26756C51.2248 5.8329 50.7966 5.61598 50.2044 5.61598Z" fill="white"/>
<path d="M55.5156 8.40673C55.5156 6.87283 55.8902 5.69235 56.6392 4.86447C57.3883 4.03739 58.4388 3.62305 59.7915 3.62305C60.5162 3.62305 61.1443 3.7376 61.6756 3.96752C62.2069 4.19745 62.6481 4.51999 62.9983 4.93677C63.3484 5.35356 63.6108 5.85809 63.7863 6.44955C63.961 7.04182 64.0488 7.6934 64.0488 8.40592C64.0488 9.93982 63.6775 11.1211 62.9349 11.9482C62.1923 12.7753 61.1443 13.1896 59.7915 13.1896C59.0668 13.1896 58.4388 13.0751 57.9075 12.8451C57.3761 12.616 56.9317 12.2927 56.5759 11.8759C56.2192 11.4591 55.9535 10.9554 55.7789 10.3631C55.6034 9.77164 55.5156 9.11925 55.5156 8.40673ZM57.9432 8.40673C57.9432 8.80564 57.9798 9.17368 58.0521 9.51166C58.1244 9.84964 58.2333 10.1462 58.3779 10.3997C58.5225 10.6531 58.7134 10.8498 58.9482 10.9887C59.1838 11.1276 59.4649 11.1967 59.7907 11.1967C60.4066 11.1967 60.8656 10.9733 61.1678 10.5264C61.4692 10.0796 61.6212 9.37273 61.6212 8.40673C61.6212 7.57316 61.4822 6.90046 61.2044 6.38699C60.9265 5.87352 60.4553 5.61679 59.7915 5.61679C59.2114 5.61679 58.7589 5.83453 58.4323 6.26919C58.1065 6.70384 57.9432 7.41636 57.9432 8.40673Z" fill="white"/>
<path d="M70.9882 9.36665H68.035V12.9357H65.6797V3.87695H68.035V7.28273H70.9882V3.87695H73.3435V12.9357H70.9882V9.36665Z" fill="white"/>
<path d="M80.7148 9.36665H77.7615V12.9357H75.4062V3.87695H77.7615V7.28273H80.7148V3.87695H83.0701V12.9357H80.7148V9.36665Z" fill="white"/>
<path d="M87.4967 7.10122C87.7868 7.05329 88.0793 7.01998 88.3758 7.00129C88.6715 6.98342 88.9404 6.97448 89.1817 6.97448C89.7976 6.97448 90.311 7.04435 90.7213 7.18247C91.1316 7.3214 91.4639 7.51801 91.7182 7.77149C91.9717 8.02498 92.1529 8.32396 92.2617 8.66843C92.3706 9.01291 92.425 9.3842 92.425 9.7823C92.425 10.3258 92.3527 10.8027 92.2073 11.2138C92.0627 11.6249 91.8271 11.9653 91.5005 12.2375C91.1747 12.5089 90.7514 12.7144 90.2322 12.8533C89.7131 12.9923 89.0729 13.0613 88.3116 13.0613C87.6235 13.0613 87.0279 13.0491 86.5267 13.0248C86.0254 13.0004 85.5631 12.9703 85.1406 12.9338V3.875H87.4959V7.10122H87.4967ZM87.4967 10.9603C87.8591 11.0327 88.2036 11.0692 88.5293 11.0692C89.0729 11.0692 89.4531 10.9693 89.6708 10.7702C89.8886 10.5712 89.9966 10.26 89.9966 9.83755C89.9966 9.45082 89.8878 9.15834 89.6708 8.95848C89.4531 8.75943 89.0907 8.6595 88.5838 8.6595C88.1849 8.6595 87.8225 8.70175 87.4967 8.78624V10.9603ZM93.4568 3.87662H95.8121V12.9354H93.4568V3.87662Z" fill="white"/>
<path d="M103.328 8.80576L103.419 7.51966H103.365L102.586 8.84232L99.361 12.9371H97.875V3.87827H100.23V8.18993L100.121 9.4216H100.194L100.936 8.13549L104.197 3.87827H105.683V12.9371H103.328V8.80576ZM100.81 0.181641C100.894 0.65286 101.036 0.985151 101.235 1.17851C101.434 1.37188 101.691 1.46856 102.005 1.46856C102.343 1.46856 102.612 1.37188 102.811 1.17851C103.01 0.985151 103.146 0.659359 103.219 0.200327L105.013 0.653672C104.869 1.43931 104.512 2.02183 103.944 2.40206C103.376 2.78228 102.712 2.97239 101.951 2.97239C101.577 2.97239 101.214 2.93015 100.864 2.84565C100.514 2.76116 100.199 2.62548 99.9215 2.43781C99.6437 2.25094 99.4081 2.01208 99.2147 1.72204C99.0214 1.432 98.8889 1.07614 98.8158 0.65286L100.81 0.181641Z" fill="white"/>
<path d="M3.80365 23.5262L4.12051 24.6108H4.18144L4.42518 23.4896L6.05819 19.0293H7.09406L4.93702 24.5742C4.71766 25.1511 4.5243 25.6329 4.35856 26.018C4.19201 26.4039 4.02383 26.7167 3.85321 26.9563C3.6826 27.196 3.4998 27.3666 3.30481 27.4682C3.10983 27.5697 2.87015 27.6209 2.5858 27.6209C2.31769 27.6209 2.10483 27.5982 1.94559 27.5535C1.78716 27.5088 1.63848 27.4422 1.50118 27.3528L1.80585 26.5119C1.96834 26.6013 2.11864 26.6582 2.25676 26.6825C2.39487 26.7069 2.5208 26.7191 2.63454 26.7191C2.86203 26.7191 3.05295 26.6037 3.20732 26.3722C3.36168 26.1406 3.49574 25.7978 3.60948 25.3428L0.453125 19.0301H1.62305L3.80365 23.5262Z" fill="white"/>
<path d="M13.2469 23.6481H9.15212V27.56H8.14062V19.0293H9.15212V22.7462H13.2469V19.0293H14.2583V27.56H13.2469V23.6481Z" fill="white"/>
<path d="M21.544 21.7835L21.6172 20.8086H21.5684L21.0444 21.8079L16.9253 27.56H16.3281V19.0293H17.3396V24.8789L17.2543 25.8417H17.3031L17.8393 24.8424L21.9584 19.0293H22.5555V27.56H21.544V21.7835Z" fill="white"/>
<path d="M29.7756 20.979C29.7756 21.1821 29.7431 21.3893 29.6781 21.6005C29.6131 21.8118 29.5156 22.0084 29.3856 22.1912C29.2556 22.374 29.0891 22.5348 28.886 22.673C28.6829 22.8111 28.4432 22.9167 28.167 22.9898V23.0386C28.4107 23.0792 28.6439 23.1482 28.8673 23.2457C29.0907 23.3432 29.2873 23.4773 29.4587 23.6479C29.6294 23.8185 29.7675 24.0257 29.8731 24.2694C29.9787 24.5131 30.0315 24.8016 30.0315 25.1347C30.0315 25.5734 29.9405 25.9536 29.7569 26.2737C29.5741 26.5946 29.3344 26.8571 29.0379 27.0602C28.7414 27.2633 28.4018 27.4136 28.0207 27.5111C27.6389 27.6086 27.2489 27.6573 26.8508 27.6573C26.7127 27.6573 26.5502 27.6573 26.3633 27.6573C26.1765 27.6573 25.9815 27.6508 25.7784 27.6386C25.5753 27.6264 25.3721 27.6102 25.169 27.5899C24.9659 27.5696 24.7872 27.5395 24.6328 27.4989V19.1023C24.9334 19.0535 25.2828 19.0129 25.6809 18.9804C26.079 18.9479 26.5136 18.9316 26.9848 18.9316C27.3017 18.9316 27.6251 18.9585 27.9533 19.0113C28.2823 19.0641 28.5805 19.1656 28.8494 19.3159C29.1175 19.4662 29.3385 19.6758 29.5132 19.9439C29.6887 20.2112 29.7756 20.5565 29.7756 20.979ZM26.278 22.7826C26.4161 22.7826 26.5827 22.7786 26.7777 22.7705C26.9727 22.7623 27.1352 22.7501 27.2651 22.7339C27.4601 22.6689 27.6429 22.5901 27.8135 22.4958C27.9842 22.4024 28.1361 22.2927 28.2701 22.1668C28.4042 22.0409 28.5098 21.8946 28.587 21.7281C28.6642 21.5615 28.7024 21.3812 28.7024 21.1854C28.7024 20.9173 28.652 20.6963 28.5496 20.5216C28.4481 20.3469 28.3124 20.2072 28.1418 20.1016C27.9712 19.9959 27.7762 19.9212 27.5568 19.8757C27.3375 19.831 27.114 19.8091 26.8865 19.8091C26.6184 19.8091 26.3723 19.8148 26.1488 19.8278C25.9254 19.84 25.7564 19.8586 25.6435 19.8822V22.7826H26.278ZM26.9483 26.7799C27.2083 26.7799 27.4601 26.749 27.7039 26.6889C27.9476 26.6288 28.1629 26.5305 28.3498 26.3964C28.5366 26.2623 28.6845 26.0982 28.7942 25.9032C28.9038 25.7083 28.9591 25.4767 28.9591 25.2086C28.9591 24.8755 28.8917 24.6074 28.7584 24.4043C28.6244 24.2012 28.4497 24.0427 28.2344 23.929C28.0191 23.8153 27.7778 23.7381 27.5097 23.6975C27.2416 23.6568 26.9735 23.6365 26.7054 23.6365H25.6451V26.6954C25.702 26.7116 25.7832 26.7238 25.8889 26.7319C25.9945 26.7401 26.1082 26.7482 26.2301 26.7563C26.352 26.7644 26.4779 26.7709 26.6079 26.775C26.7371 26.7783 26.8508 26.7799 26.9483 26.7799Z" fill="white"/>
<path d="M31.75 19.0293H36.3931V19.9311H32.7615V22.7219H36.0885V23.6237H32.7615V26.6582H36.4541V27.56H31.75V19.0293Z" fill="white"/>
<path d="M38.2812 19.1144C38.59 19.0413 38.9231 18.9926 39.2806 18.9682C39.638 18.9438 39.9915 18.9316 40.3408 18.9316C40.7145 18.9316 41.0939 18.9682 41.4807 19.0413C41.8666 19.1144 42.2184 19.2485 42.5344 19.4435C42.8513 19.6385 43.1088 19.9066 43.3087 20.2478C43.5077 20.589 43.6068 21.0237 43.6068 21.5518C43.6068 22.0717 43.5134 22.5105 43.3265 22.8679C43.1397 23.2254 42.8919 23.5163 42.5832 23.7397C42.2744 23.9631 41.921 24.124 41.5229 24.2207C41.1248 24.3182 40.7145 24.3669 40.2921 24.3669C40.2514 24.3669 40.184 24.3669 40.0914 24.3669C39.998 24.3669 39.9005 24.3653 39.7989 24.3604C39.6973 24.3563 39.5982 24.3507 39.5007 24.3417C39.4032 24.3336 39.3342 24.3255 39.2936 24.3174V27.559H38.2821V19.1144H38.2812ZM40.3652 19.8091C40.1539 19.8091 39.9508 19.8131 39.7558 19.8213C39.5609 19.8294 39.4065 19.8497 39.2927 19.8822V23.4163C39.3334 23.4326 39.3984 23.4432 39.4877 23.4472C39.5771 23.4513 39.6705 23.4553 39.768 23.4594C39.8655 23.4635 39.959 23.4659 40.0483 23.4659C40.1377 23.4659 40.2027 23.4659 40.2433 23.4659C40.5195 23.4659 40.7933 23.4399 41.0655 23.3863C41.3377 23.3335 41.5838 23.2384 41.8024 23.1003C42.0218 22.9622 42.1989 22.7672 42.3329 22.5153C42.467 22.2635 42.5336 21.9426 42.5336 21.5526C42.5336 21.2195 42.4702 20.9416 42.3451 20.7182C42.2192 20.4948 42.0526 20.3161 41.8455 20.182C41.6383 20.0479 41.4043 19.9529 41.1451 19.896C40.8851 19.8375 40.6252 19.8091 40.3652 19.8091Z" fill="white"/>
<path d="M50.3443 27.2071C50.1006 27.394 49.7918 27.524 49.4181 27.5971C49.0444 27.6702 48.6463 27.7068 48.2238 27.7068C47.712 27.7068 47.2326 27.6191 46.7858 27.4452C46.3389 27.2705 45.949 27.0048 45.6159 26.6466C45.2828 26.2891 45.0187 25.8325 44.8237 25.2751C44.6287 24.7186 44.5312 24.0589 44.5312 23.2944C44.5312 22.4982 44.6385 21.8222 44.8538 21.2649C45.0691 20.7084 45.3534 20.2534 45.7069 19.9C46.0603 19.5466 46.4559 19.289 46.8947 19.1265C47.3334 18.9641 47.7802 18.8828 48.2352 18.8828C48.7227 18.8828 49.1208 18.9096 49.4295 18.9616C49.7382 19.0144 50.0023 19.0859 50.2216 19.1745L49.9779 20.0763C49.5879 19.8813 49.0314 19.7838 48.3083 19.7838C47.9752 19.7838 47.6462 19.8447 47.3212 19.9666C46.9962 20.0885 46.7054 20.2875 46.4502 20.5638C46.1943 20.84 45.9888 21.2015 45.8344 21.6484C45.6801 22.0952 45.6029 22.6436 45.6029 23.2936C45.6029 23.8785 45.676 24.3904 45.8222 24.8291C45.9685 25.2678 46.17 25.6334 46.4251 25.9259C46.681 26.2184 46.9816 26.4378 47.3269 26.584C47.6722 26.7302 48.0475 26.8034 48.4546 26.8034C48.8202 26.8034 49.1386 26.7668 49.4108 26.6937C49.683 26.6206 49.9121 26.5271 50.0998 26.4134L50.3443 27.2071Z" fill="white"/>
<path d="M57.0597 21.7835L57.1328 20.8086H57.084L56.56 21.8079L52.4409 27.56H51.8438V19.0293H52.8552V24.8789L52.7699 25.8417H52.8187L53.3549 24.8424L57.474 19.0293H58.0711V27.56H57.0597V21.7835Z" fill="white"/>
<path d="M65.653 19.9311H62.9963V27.56H61.9848V19.9311H59.3281V19.0293H65.653V19.9311Z" fill="white"/>
<path d="M66.9062 19.0293H71.5494V19.9311H67.9178V22.7219H71.2447V23.6237H67.9178V26.6582H71.6103V27.56H66.9062V19.0293Z" fill="white"/>
<path d="M78.9499 19.9311H76.2932V27.56H75.2817V19.9311H72.625V19.0293H78.9499V19.9311Z" fill="white"/>
</svg>
