<svg width="24" height="22" viewBox="0 0 24 22" fill="none" xmlns="http://www.w3.org/2000/svg">
<path fill-rule="evenodd" clip-rule="evenodd" d="M22.0415 6.89922C22.5115 7.39922 22.8615 7.98922 23.1015 8.64922L23.0815 8.63922C23.3215 9.29922 23.4115 9.98921 23.3715 10.6792L22.8115 16.4092C22.6215 19.5092 20.6515 21.3792 17.5415 21.3792H6.30147C3.17147 21.3792 1.20147 19.4992 1.02147 16.3692L0.471464 10.7092C0.381464 9.27923 0.871464 7.89923 1.83146 6.87923C2.79146 5.84923 4.09147 5.28922 5.49147 5.28922C5.77147 5.28922 6.03147 5.11922 6.16147 4.86922L6.92146 3.30922C7.59146 1.95922 9.22146 0.949219 10.7015 0.949219H13.1615C14.6415 0.949219 16.2615 1.95922 16.9315 3.29922L17.7115 4.87923C17.8315 5.11923 18.1015 5.28922 18.3715 5.28922C19.0615 5.28922 19.7415 5.42923 20.3715 5.70923C21.0015 5.98923 21.5715 6.38922 22.0415 6.89922ZM17.5515 19.3892C19.6215 19.3892 20.7015 18.3592 20.8315 16.2592H20.8615L21.4215 10.5192C21.4415 10.1392 21.3815 9.71923 21.2415 9.31923C21.1015 8.91923 20.8815 8.55922 20.6015 8.25922C20.3115 7.95922 19.9715 7.71922 19.5915 7.54922C19.2115 7.37922 18.8115 7.29922 18.3915 7.29922C17.3515 7.29922 16.4215 6.71921 15.9415 5.78922L15.1615 4.19922C14.8315 3.54922 13.8915 2.95923 13.1815 2.95923H10.7215C10.0115 2.95923 9.06146 3.55923 8.73146 4.20923L7.96145 5.77922C7.48145 6.71922 6.54146 7.29922 5.51146 7.29922C4.67146 7.29922 3.89146 7.63922 3.31146 8.25922C2.72146 8.87922 2.42146 9.69922 2.48146 10.5592L3.03146 16.2292C3.15146 18.3692 4.22146 19.3892 6.31146 19.3892H17.5515ZM7.44531 12.52C7.44531 10.03 9.4653 8 11.9353 8C14.4153 8 16.4253 10.03 16.4253 12.52C16.4253 15.01 14.4153 17.04 11.9353 17.04C9.4553 17.04 7.44531 15.01 7.44531 12.52ZM9.44531 12.52C9.44531 13.91 10.5653 15.04 11.9353 15.04C13.3053 15.04 14.4253 13.91 14.4253 12.52C14.4253 11.13 13.3053 10 11.9353 10C10.5653 10 9.44531 11.13 9.44531 12.52Z" fill="white"/>
</svg>
