<svg width="141" height="32" viewBox="0 0 141 32" fill="none" xmlns="http://www.w3.org/2000/svg">
<path fill-rule="evenodd" clip-rule="evenodd" d="M0.343665 0H26.1868H26.4971H26.5304V0.0341228V0.344477V20.6605V20.754V20.7572V20.7588V20.7791V20.7799L26.5296 20.8441V20.9717V21.0058H26.5264C26.4849 22.2334 26.108 23.4976 25.4596 24.7089C24.7942 25.9504 23.8429 27.1373 22.6738 28.1716C21.4462 29.257 19.9756 30.1767 18.3426 30.8169C16.8306 31.41 15.1798 31.7634 13.4525 31.787L13.2648 31.7894C11.5506 31.7894 9.91022 31.4807 8.40557 30.9372C6.79855 30.3571 5.34509 29.5105 4.11667 28.4884C2.87769 27.4574 1.86781 26.2469 1.15774 24.9502C0.467157 23.6893 0.0617459 22.3455 0.00649957 21.0058H0V20.9717V20.693V20.6621V0.343665V0.0341228V0H0.0341228H0.343665ZM9.56737 27.9928H9.94678V26.9164L9.98741 26.7311L9.8566 26.892L9.61368 27.0585L9.46338 26.8538L10.0849 26.3525H10.284V27.9937H10.6544V28.2935H9.56656V27.9928H9.56737ZM11.5473 27.8271C11.5473 27.7637 11.5554 27.7069 11.5717 27.6565C11.5879 27.6061 11.6115 27.5606 11.6407 27.52C11.6708 27.4794 11.7065 27.442 11.7472 27.4095C11.7878 27.377 11.8317 27.347 11.8796 27.3193C11.7902 27.2633 11.7204 27.1983 11.67 27.1243C11.6188 27.0504 11.5936 26.9594 11.5936 26.8505C11.5936 26.7799 11.6066 26.7132 11.6334 26.6515C11.6594 26.5898 11.6976 26.5361 11.748 26.4906C11.7975 26.4451 11.8585 26.4094 11.9292 26.3842C11.9998 26.359 12.0803 26.346 12.1688 26.346C12.2509 26.346 12.3248 26.3566 12.3922 26.3785C12.4597 26.4005 12.5174 26.4313 12.5653 26.4711C12.6132 26.5109 12.6506 26.5597 12.6774 26.6166C12.7034 26.6742 12.7172 26.7368 12.7172 26.8059C12.7172 26.9131 12.6929 27.0041 12.6449 27.078C12.597 27.1528 12.5263 27.221 12.4337 27.2828C12.5426 27.3461 12.6246 27.4168 12.6807 27.4924C12.7359 27.5688 12.7635 27.6671 12.7635 27.7865C12.7635 27.8685 12.7489 27.9425 12.7189 28.0083C12.6888 28.0749 12.6465 28.1318 12.5921 28.1789C12.5377 28.226 12.4719 28.2626 12.3955 28.2894C12.3191 28.3162 12.2354 28.3292 12.1445 28.3292C12.0535 28.3292 11.9714 28.317 11.8975 28.2926C11.8235 28.2683 11.761 28.2341 11.709 28.1903C11.657 28.1464 11.6172 28.0936 11.5887 28.0318C11.5611 27.9725 11.5473 27.9027 11.5473 27.8271ZM12.4256 27.7914C12.4256 27.7491 12.4158 27.7117 12.3955 27.6768C12.3752 27.6427 12.35 27.611 12.3175 27.5826C12.2858 27.5541 12.2501 27.5281 12.2111 27.5046C12.1721 27.481 12.1323 27.4583 12.0925 27.4363C12.0071 27.4851 11.9487 27.5387 11.917 27.5956C11.8853 27.6524 11.869 27.7093 11.869 27.7662C11.869 27.8393 11.8942 27.901 11.9438 27.953C11.9942 28.005 12.0632 28.031 12.1526 28.031C12.2346 28.031 12.3004 28.0107 12.35 27.9709C12.4004 27.9311 12.4256 27.871 12.4256 27.7914ZM11.9316 26.8562C11.9316 26.9001 11.9397 26.9383 11.956 26.9708C11.9722 27.0033 11.9942 27.0317 12.0226 27.0569C12.051 27.0813 12.0827 27.104 12.1176 27.1252C12.1534 27.1463 12.1899 27.1658 12.2281 27.1837C12.337 27.091 12.3914 26.9895 12.3914 26.8782C12.3914 26.8018 12.3695 26.7441 12.3248 26.7051C12.2801 26.6661 12.2265 26.6466 12.1623 26.6466C12.0827 26.6466 12.0234 26.6678 11.9868 26.7092C11.9503 26.7506 11.9316 26.7994 11.9316 26.8562ZM13.5792 27.3364C13.5792 27.0017 13.6361 26.7531 13.7507 26.5906C13.8652 26.4281 14.0293 26.346 14.2438 26.346C14.4729 26.346 14.6411 26.4265 14.7483 26.5873C14.8556 26.7482 14.9092 26.9976 14.9092 27.3356C14.9092 27.6719 14.8515 27.9214 14.7362 28.0855C14.6208 28.2488 14.4559 28.3308 14.2414 28.3308C14.0139 28.3308 13.8473 28.2447 13.7401 28.0733C13.6329 27.9019 13.5792 27.6557 13.5792 27.3364ZM13.9335 27.3364C13.9335 27.5582 13.9578 27.7296 14.0058 27.8507C14.0537 27.9717 14.1333 28.0318 14.2446 28.0318C14.3519 28.0318 14.4307 27.9766 14.4802 27.8653C14.5306 27.7548 14.555 27.5777 14.555 27.3364C14.555 27.1162 14.5314 26.9464 14.4843 26.8262C14.4372 26.7059 14.3559 26.6458 14.2414 26.6458C14.1325 26.6458 14.0537 26.7019 14.0058 26.8148C13.9578 26.9277 13.9335 27.1016 13.9335 27.3364ZM17.0671 27.7613H16.7673V28.2926H16.4374V27.7613H15.6112V27.5598L16.4756 26.3712H16.7673V27.4778H17.0671V27.7613ZM16.4366 27.0602L16.461 26.8311H16.4504L16.3578 27.0277L16.0743 27.3957L15.9378 27.4997L16.1124 27.4778H16.4366V27.0602ZM9.26839 7.82874C8.46407 7.3762 8.11959 8.03591 7.32908 8.19921C6.45326 8.38039 6.22009 7.69793 5.84718 7.0886C6.46383 7.21778 6.49957 7.50782 7.3039 6.95698C7.89454 6.55238 8.64281 6.81724 9.0799 7.31527L8.59325 6.00642C10.0443 5.99423 11.6789 5.80493 13.1105 6.00642L13.2916 6.03648C14.8231 6.33871 15.9792 7.65 15.9792 9.30983C15.9792 10.5244 15.2846 11.8739 14.2674 12.5921V12.7449C15.6274 12.4329 17.1832 11.2938 17.3222 10.6544C17.1231 10.5764 16.6454 10.3026 16.6511 10.2693C16.1189 9.88748 15.8898 9.12621 16.0158 8.54938C16.1417 7.97254 16.4098 7.69387 16.7933 7.46151C17.0573 7.32746 17.2962 7.24702 17.5822 7.21778L24.7406 6.20791C24.7747 6.45001 24.7975 6.69619 24.8097 6.94155C25.0169 11.3198 21.6338 15.0392 17.2556 15.2464C15.7582 15.3171 13.827 14.4884 13.147 13.0731C13.1113 13.0788 13.0755 13.0853 13.0398 13.0893C12.7798 13.1178 12.5377 13.1624 12.3126 13.2209C12.0843 14.1731 14.0318 14.9125 16.2896 15.2756L15.928 15.7997C16.3554 15.6648 16.8095 15.5917 17.2816 15.5917C19.7636 15.5917 21.776 17.6041 21.776 20.0869C21.776 22.569 19.7628 24.5814 17.2816 24.5814C14.7995 24.5814 12.7871 22.569 12.7871 20.0869C12.7871 19.8318 12.809 19.5816 12.8497 19.3387L13.0032 19.3614L15.7241 19.5467C15.5892 19.7676 15.5112 20.0268 15.5112 20.3055C15.5112 21.1098 16.1636 21.7622 16.9679 21.7622C17.7723 21.7622 18.4247 21.1098 18.4247 20.3055C18.4247 19.5142 17.7926 18.8699 17.0061 18.8496L17.0013 18.8358L16.8225 18.8569C16.8055 18.8585 16.7876 18.861 16.7697 18.8626L14.4258 19.138C13.4021 19.3062 12.5166 19.3736 11.7602 19.3492L8.51769 23.7722L8.11228 22.6981C5.82037 22.5056 6.61332 23.5658 7.12678 23.9997C7.17715 24.0419 7.17715 24.219 7.13003 24.258C6.28834 24.1938 5.55226 23.5179 5.55226 22.6388C5.55226 21.7589 6.28265 21.0074 7.18365 21.0074C7.78486 21.0074 8.3097 21.3324 8.59244 21.8166L10.0646 17.1735H9.83142L8.94016 18.4539C8.41532 17.9055 8.00504 17.245 7.75155 16.5122L5.26384 13.4314C5.15822 13.6702 4.99655 13.8782 4.79669 14.0399L4.30028 12.7245C3.20023 12.6701 2.52102 12.9358 3.09136 13.7718L3.33022 13.7742L3.29935 13.3615H3.98993L3.88106 14.8068L3.88187 14.8174H3.88025L3.87862 14.8434H3.40578L3.40415 14.7467L3.36922 14.282C2.73957 14.057 2.14405 13.5614 2.14405 12.7709C2.14405 12.1623 2.55596 11.5481 3.14254 11.28L2.82406 7.04554L2.05224 6.06735H3.35703C3.30828 5.52545 3.47565 4.93805 3.79413 4.46521C3.5049 4.51395 3.23841 4.66913 2.98005 5.0981C2.80944 4.16785 3.58939 2.97193 4.65288 3.15067C5.72044 3.33103 5.62132 3.02149 6.18272 2.60308C6.14291 2.94918 6.13641 3.29772 6.06004 3.59833C7.15928 3.71776 7.10972 3.31559 7.81655 2.78832C7.68981 3.88025 7.8068 4.98436 6.46708 5.29715C5.24597 5.58232 4.33359 4.86818 3.49677 6.06654H3.64545H5.23703L4.46764 7.04229L4.15566 11.1841C4.4189 11.2467 4.65776 11.3734 4.85356 11.5473L6.83918 12.7392L7.27465 14.3519H7.47857C7.68737 11.6521 9.9086 9.51619 12.6441 9.44144L12.5377 9.17496L9.78836 9.18796L9.26839 7.82874ZM9.1449 7.39489C9.23183 7.50619 9.30251 7.62806 9.3537 7.7548C10.5252 7.96441 12.6977 9.31551 11.9722 7.39489H9.1449ZM11.0558 3.4854H11.7642V3.6552H11.9877V4.20522C11.8447 4.26453 11.7431 4.4059 11.7431 4.57001C11.7431 4.74469 11.8568 4.89255 12.0136 4.94455L12.0161 4.94536L12.0226 4.9478H12.0234L12.0275 4.94861L12.0315 4.95024L12.034 4.95105L12.0405 4.95267L12.0429 4.95349L12.0453 4.9543L12.0478 4.95511H12.0486L12.0502 4.95592H12.0526L12.0551 4.95674L12.0591 4.95755H12.06L12.0624 4.95836L12.0648 4.95917H12.0673H12.0681L12.0746 4.95999L12.077 4.9608H12.0778L12.0811 4.96161H12.0819H12.0843H12.0868H12.0884H12.09H12.0925H12.0949H12.099H12.1022H12.1046H12.1071H12.112H12.1144H12.1185H12.1193H12.129H12.1331H12.1339H12.1363H12.1388C12.3565 4.96161 12.5336 4.78531 12.5336 4.56758V4.56026V4.55783V4.55051L12.5328 4.5432C12.5328 4.53833 12.532 4.53427 12.532 4.52939L12.5312 4.5237V4.52289L12.5304 4.51639V4.51558C12.5296 4.50745 12.5279 4.49852 12.5263 4.49039L12.5255 4.48714L12.5239 4.47983L12.5206 4.46602L12.519 4.45952V4.45871L12.5166 4.45058L12.5157 4.44896L12.5149 4.44571C12.4954 4.38559 12.4621 4.33115 12.4182 4.28728L12.4174 4.28647L12.4126 4.28159L12.4077 4.27672L12.4044 4.27347L12.402 4.27184L12.3971 4.26778L12.3922 4.26372L12.3898 4.2621L12.3825 4.25641L12.3809 4.2556C12.3768 4.25235 12.3719 4.2491 12.3679 4.24585L12.3671 4.24503L12.3638 4.24341L12.3589 4.24016L12.3581 4.23935L12.3524 4.23528L12.3508 4.23447L12.3492 4.23691C12.3443 4.23366 12.3394 4.23122 12.3346 4.22797C12.3289 4.22472 12.3232 4.22229 12.3175 4.21904L12.3159 4.21822L12.3094 4.21497H12.3086L12.3029 4.21254V4.11017C12.3029 3.78519 12.5889 3.35865 12.913 3.35053L13.5159 3.33428L12.6547 5.58801L10.1913 5.59613L9.33176 3.34241L9.90454 3.35053C10.2295 3.35459 10.5147 3.786 10.5147 4.11017V4.21335C10.4351 4.25072 10.3701 4.31328 10.3303 4.39127V4.39209L10.327 4.39777L10.3262 4.3994L10.3221 4.40752L10.3213 4.40996L10.3181 4.41646L10.3156 4.42296L10.3148 4.4254L10.3116 4.43433L10.3108 4.43596L10.3083 4.44246V4.44327C10.3034 4.45871 10.2994 4.47414 10.2953 4.49039C10.2929 4.50339 10.2905 4.51558 10.2896 4.52858V4.5302C10.2888 4.53589 10.288 4.54158 10.288 4.54726V4.54889V4.55051V4.55864V4.56108V4.56839C10.288 4.78612 10.4643 4.96242 10.682 4.96242H10.6845H10.6869H10.6877H10.6918H10.7015H10.7024H10.7064H10.7089H10.7137H10.7162H10.7186H10.7219H10.7259H10.7284H10.7308H10.7316H10.7332H10.7357H10.7381H10.7405H10.7422H10.7438L10.7462 4.96161H10.7487L10.7527 4.9608H10.7535H10.756L10.7584 4.95999L10.7609 4.95917L10.7649 4.95836L10.7674 4.95755H10.7698L10.7722 4.95674L10.7869 4.95349L10.7893 4.95267C10.9558 4.90637 11.0777 4.75363 11.0777 4.57245C11.0777 4.40752 10.977 4.26697 10.8332 4.20766V3.65763H11.0566V3.4854H11.0558ZM20.9449 17.0833C22.8452 16.3123 24.609 15.0246 25.012 11.8162C24.6374 13.4005 23.8144 14.2771 22.7826 14.7622C21.6793 15.2821 20.3372 15.3544 19.0486 15.3674C19.9188 15.7436 20.507 16.2839 20.9449 17.0833ZM25.8431 0.68733H0.688142V20.316H0.69058L0.689767 20.3502L0.68733 20.5703V20.6573V20.6914C0.68733 21.9824 1.04968 23.2888 1.7037 24.518C2.37316 25.7773 3.34972 26.9578 4.55539 27.9612C5.72369 28.9337 7.10728 29.7388 8.63712 30.2904C10.0695 30.8072 11.631 31.1005 13.2648 31.1005H13.4444C15.0863 31.0777 16.6576 30.7414 18.0956 30.1767C19.6498 29.5666 21.0497 28.6907 22.2188 27.6565C23.3481 26.658 24.2605 25.5149 24.8877 24.3238C25.5027 23.1564 25.8423 21.9434 25.8423 20.7783C25.8423 20.7296 25.8431 20.7174 25.8431 20.7109V20.6946V20.6938H25.8415V20.6597V20.6077L25.8374 20.3502L25.8366 20.316H25.8407V0.68733H25.8431Z" fill="white"/>
<path d="M37.7195 6.50758H42.5934C42.5568 6.02498 42.4577 5.58057 42.2944 5.17598C42.1311 4.77138 41.9109 4.42446 41.633 4.13442C41.3552 3.84437 41.0107 3.6177 40.6004 3.45521C40.1893 3.29191 39.7246 3.21067 39.2055 3.21067C38.5531 3.21067 37.9852 3.28054 37.5026 3.41865C37.0192 3.55758 36.6268 3.71195 36.3245 3.88094L35.7989 1.77914C36.2213 1.5614 36.7527 1.37779 37.3929 1.22667C38.0331 1.07556 38.6668 1 39.2956 1C40.1292 1 40.8994 1.11537 41.6054 1.34448C42.3123 1.5744 42.9216 1.95137 43.4351 2.47703C43.9485 3.00268 44.3499 3.68514 44.6399 4.52439C44.93 5.36365 45.0746 6.38733 45.0746 7.59544C45.0746 8.85148 44.9056 9.90279 44.5676 10.7477C44.2296 11.5935 43.7763 12.2694 43.2084 12.7772C42.6405 13.2842 41.9881 13.6465 41.252 13.8643C40.5151 14.082 39.7482 14.1901 38.9512 14.1901C38.263 14.1901 37.6374 14.1291 37.076 14.0089C36.5146 13.8887 36.0645 13.7489 35.7266 13.5921L36.379 11.4359C36.6568 11.5691 37.0314 11.6926 37.5026 11.8072C37.9738 11.9217 38.5173 11.9794 39.1332 11.9794C39.6044 11.9794 40.039 11.9128 40.4379 11.7804C40.8369 11.6479 41.1895 11.4391 41.4974 11.1556C41.8053 10.872 42.0563 10.5121 42.2489 10.0775C42.4422 9.64281 42.5625 9.11715 42.6112 8.50132H37.7195V6.50758Z" fill="white"/>
<path d="M51.1282 6.96007H49.3343C49.262 7.81801 49.1775 8.66945 49.0808 9.5144C48.9842 10.3602 48.8298 11.1182 48.6186 11.7884C48.4073 12.4587 48.1205 13.0022 47.7582 13.419C47.3958 13.8358 46.9246 14.0438 46.3453 14.0438C45.645 14.0438 45.1494 13.9544 44.8594 13.7765L45.1494 11.8518C45.3428 11.9241 45.524 11.9607 45.6929 11.9607C45.9342 11.9607 46.1463 11.8575 46.3275 11.6511C46.5086 11.4448 46.6622 11.0743 46.7897 10.5405C46.9165 10.0059 47.0189 9.28042 47.0977 8.36398C47.1765 7.44754 47.2333 6.28492 47.2699 4.87695H53.4843V13.9357H51.129V6.96007H51.1282Z" fill="white"/>
<path d="M62.7754 13.1562C62.4131 13.4462 61.9207 13.6908 61.2992 13.8898C60.6769 14.0889 60.0156 14.1888 59.3152 14.1888C57.8536 14.1888 56.7845 13.7631 56.1085 12.9116C55.4317 12.0602 55.0938 10.8919 55.0938 9.40592C55.0938 7.8119 55.474 6.61598 56.2352 5.81897C56.9965 5.02196 58.0649 4.62305 59.442 4.62305C59.901 4.62305 60.3478 4.68398 60.7825 4.80422C61.2172 4.92528 61.6039 5.12433 61.9419 5.40218C62.2798 5.68004 62.5512 6.05458 62.7576 6.5258C62.9631 6.99702 63.0655 7.58279 63.0655 8.28312C63.0655 8.5366 63.05 8.80877 63.02 9.09882C62.9899 9.38886 62.9444 9.69109 62.8843 10.0047H57.4669C57.5027 10.766 57.6985 11.3395 58.0535 11.7263C58.4085 12.113 58.9837 12.3064 59.7775 12.3064C60.2707 12.3064 60.7134 12.2308 61.1042 12.0797C61.4958 11.9286 61.7932 11.775 61.9979 11.6174L62.7754 13.1562ZM59.4135 6.50711C58.8009 6.50711 58.3476 6.69154 58.0527 7.05958C57.7586 7.42843 57.5815 7.91996 57.5213 8.53579H60.8727C60.9206 7.8834 60.8215 7.38212 60.5753 7.03195C60.33 6.6826 59.9424 6.50711 59.4135 6.50711Z" fill="white"/>
<path d="M67.7242 10.1855H67.0905V13.9357H64.7344V4.87695H67.0897V8.73607L67.6511 8.48259L69.7707 4.87695H72.2893L70.0973 8.31929L69.1736 9.00743L70.1883 9.71426L72.6346 13.9357H69.934L67.7242 10.1855Z" fill="white"/>
<path d="M80.1144 6.96088H77.56V13.9357H75.1325V6.96088H72.5781V4.87695H80.1152V6.96088H80.1144Z" fill="white"/>
<path d="M81.1641 4.87653H82.8856L83.157 5.96358H83.2293C83.5429 5.50455 83.915 5.16657 84.3432 4.94884C84.7721 4.7311 85.2945 4.62305 85.9104 4.62305C87.0454 4.62305 87.8968 4.98296 88.4647 5.70116C89.0326 6.42018 89.3162 7.57629 89.3162 9.17031C89.3162 9.94376 89.226 10.6408 89.0448 11.2632C88.8636 11.8855 88.5947 12.4136 88.2388 12.8483C87.8822 13.2829 87.4475 13.6152 86.9341 13.8443C86.4206 14.0734 85.8316 14.1888 85.1678 14.1888C84.7933 14.1888 84.4853 14.162 84.244 14.1075C84.0019 14.0531 83.7606 13.9654 83.5193 13.8451V17.5596H81.1641V4.87653ZM85.2044 6.61598C84.7453 6.61598 84.3862 6.73053 84.1262 6.96046C83.8663 7.19038 83.664 7.53404 83.5193 7.99308V11.7612C83.6883 11.8944 83.8728 12.0001 84.0718 12.0781C84.2709 12.1569 84.5341 12.1959 84.8599 12.1959C85.5358 12.1959 86.0436 11.9578 86.3816 11.4801C86.7196 11.0032 86.8886 10.2151 86.8886 9.11588C86.8886 8.31887 86.7553 7.70303 86.4896 7.26756C86.2248 6.8329 85.7966 6.61598 85.2044 6.61598Z" fill="white"/>
<path d="M90.5156 9.40673C90.5156 7.87283 90.8902 6.69235 91.6392 5.86447C92.3883 5.03739 93.4388 4.62305 94.7915 4.62305C95.5162 4.62305 96.1443 4.7376 96.6756 4.96752C97.2069 5.19745 97.6481 5.51999 97.9983 5.93677C98.3484 6.35356 98.6108 6.85809 98.7863 7.44955C98.961 8.04182 99.0488 8.6934 99.0488 9.40592C99.0488 10.9398 98.6775 12.1211 97.9349 12.9482C97.1923 13.7753 96.1443 14.1896 94.7915 14.1896C94.0668 14.1896 93.4388 14.0751 92.9075 13.8451C92.3761 13.616 91.9317 13.2927 91.5759 12.8759C91.2192 12.4591 90.9535 11.9554 90.7789 11.3631C90.6034 10.7716 90.5156 10.1192 90.5156 9.40673ZM92.9432 9.40673C92.9432 9.80564 92.9798 10.1737 93.0521 10.5117C93.1244 10.8496 93.2333 11.1462 93.3779 11.3997C93.5225 11.6531 93.7134 11.8498 93.9482 11.9887C94.1838 12.1276 94.4649 12.1967 94.7907 12.1967C95.4066 12.1967 95.8656 11.9733 96.1678 11.5264C96.4692 11.0796 96.6212 10.3727 96.6212 9.40673C96.6212 8.57316 96.4822 7.90046 96.2044 7.38699C95.9265 6.87352 95.4553 6.61679 94.7915 6.61679C94.2114 6.61679 93.7589 6.83453 93.4323 7.26919C93.1065 7.70384 92.9432 8.41636 92.9432 9.40673Z" fill="white"/>
<path d="M105.988 10.3667H103.035V13.9357H100.68V4.87695H103.035V8.28273H105.988V4.87695H108.344V13.9357H105.988V10.3667Z" fill="white"/>
<path d="M115.715 10.3667H112.762V13.9357H110.406V4.87695H112.762V8.28273H115.715V4.87695H118.07V13.9357H115.715V10.3667Z" fill="white"/>
<path d="M122.497 8.10122C122.787 8.05329 123.079 8.01998 123.376 8.00129C123.672 7.98342 123.94 7.97448 124.182 7.97448C124.798 7.97448 125.311 8.04435 125.721 8.18247C126.132 8.3214 126.464 8.51801 126.718 8.77149C126.972 9.02498 127.153 9.32396 127.262 9.66843C127.371 10.0129 127.425 10.3842 127.425 10.7823C127.425 11.3258 127.353 11.8027 127.207 12.2138C127.063 12.6249 126.827 12.9653 126.5 13.2375C126.175 13.5089 125.751 13.7144 125.232 13.8533C124.713 13.9923 124.073 14.0613 123.312 14.0613C122.623 14.0613 122.028 14.0491 121.527 14.0248C121.025 14.0004 120.563 13.9703 120.141 13.9338V4.875H122.496V8.10122H122.497ZM122.497 11.9603C122.859 12.0327 123.204 12.0692 123.529 12.0692C124.073 12.0692 124.453 11.9693 124.671 11.7702C124.889 11.5712 124.997 11.26 124.997 10.8375C124.997 10.4508 124.888 10.1583 124.671 9.95848C124.453 9.75943 124.091 9.6595 123.584 9.6595C123.185 9.6595 122.823 9.70175 122.497 9.78624V11.9603ZM128.457 4.87662H130.812V13.9354H128.457V4.87662Z" fill="white"/>
<path d="M138.328 9.80576L138.419 8.51966H138.365L137.586 9.84232L134.361 13.9371H132.875V4.87827H135.23V9.18993L135.121 10.4216H135.194L135.936 9.13549L139.197 4.87827H140.683V13.9371H138.328V9.80576ZM135.81 1.18164C135.894 1.65286 136.036 1.98515 136.235 2.17851C136.434 2.37188 136.691 2.46856 137.005 2.46856C137.343 2.46856 137.612 2.37188 137.811 2.17851C138.01 1.98515 138.146 1.65936 138.219 1.20033L140.013 1.65367C139.869 2.43931 139.512 3.02183 138.944 3.40206C138.376 3.78228 137.712 3.97239 136.951 3.97239C136.577 3.97239 136.214 3.93015 135.864 3.84565C135.514 3.76116 135.199 3.62548 134.922 3.43781C134.644 3.25094 134.408 3.01208 134.215 2.72204C134.021 2.432 133.889 2.07614 133.816 1.65286L135.81 1.18164Z" fill="white"/>
<path d="M38.8037 24.5262L39.1205 25.6108H39.1814L39.4252 24.4896L41.0582 20.0293H42.0941L39.937 25.5742C39.7177 26.1511 39.5243 26.6329 39.3586 27.018C39.192 27.4039 39.0238 27.7167 38.8532 27.9563C38.6826 28.196 38.4998 28.3666 38.3048 28.4682C38.1098 28.5697 37.8702 28.6209 37.5858 28.6209C37.3177 28.6209 37.1048 28.5982 36.9456 28.5535C36.7872 28.5088 36.6385 28.4422 36.5012 28.3528L36.8058 27.5119C36.9683 27.6013 37.1186 27.6582 37.2568 27.6825C37.3949 27.7069 37.5208 27.7191 37.6345 27.7191C37.862 27.7191 38.053 27.6037 38.2073 27.3722C38.3617 27.1406 38.4957 26.7978 38.6095 26.3428L35.4531 20.0301H36.623L38.8037 24.5262Z" fill="white"/>
<path d="M48.2469 24.6481H44.1521V28.56H43.1406V20.0293H44.1521V23.7462H48.2469V20.0293H49.2583V28.56H48.2469V24.6481Z" fill="white"/>
<path d="M56.544 22.7835L56.6172 21.8086H56.5684L56.0444 22.8079L51.9253 28.56H51.3281V20.0293H52.3396V25.8789L52.2543 26.8417H52.3031L52.8393 25.8424L56.9584 20.0293H57.5555V28.56H56.544V22.7835Z" fill="white"/>
<path d="M64.7756 21.979C64.7756 22.1821 64.7431 22.3893 64.6781 22.6005C64.6131 22.8118 64.5156 23.0084 64.3856 23.1912C64.2556 23.374 64.0891 23.5348 63.886 23.673C63.6829 23.8111 63.4432 23.9167 63.167 23.9898V24.0386C63.4107 24.0792 63.6439 24.1482 63.8673 24.2457C64.0907 24.3432 64.2873 24.4773 64.4587 24.6479C64.6294 24.8185 64.7675 25.0257 64.8731 25.2694C64.9787 25.5131 65.0315 25.8016 65.0315 26.1347C65.0315 26.5734 64.9405 26.9536 64.7569 27.2737C64.5741 27.5946 64.3344 27.8571 64.0379 28.0602C63.7414 28.2633 63.4018 28.4136 63.0207 28.5111C62.6389 28.6086 62.2489 28.6573 61.8508 28.6573C61.7127 28.6573 61.5502 28.6573 61.3633 28.6573C61.1765 28.6573 60.9815 28.6508 60.7784 28.6386C60.5753 28.6264 60.3721 28.6102 60.169 28.5899C59.9659 28.5696 59.7872 28.5395 59.6328 28.4989V20.1023C59.9334 20.0535 60.2828 20.0129 60.6809 19.9804C61.079 19.9479 61.5136 19.9316 61.9848 19.9316C62.3017 19.9316 62.6251 19.9585 62.9533 20.0113C63.2823 20.0641 63.5805 20.1656 63.8494 20.3159C64.1175 20.4662 64.3385 20.6758 64.5132 20.9439C64.6887 21.2112 64.7756 21.5565 64.7756 21.979ZM61.278 23.7826C61.4161 23.7826 61.5827 23.7786 61.7777 23.7705C61.9727 23.7623 62.1352 23.7501 62.2651 23.7339C62.4601 23.6689 62.6429 23.5901 62.8135 23.4958C62.9842 23.4024 63.1361 23.2927 63.2701 23.1668C63.4042 23.0409 63.5098 22.8946 63.587 22.7281C63.6642 22.5615 63.7024 22.3812 63.7024 22.1854C63.7024 21.9173 63.652 21.6963 63.5496 21.5216C63.4481 21.3469 63.3124 21.2072 63.1418 21.1016C62.9712 20.9959 62.7762 20.9212 62.5568 20.8757C62.3375 20.831 62.114 20.8091 61.8865 20.8091C61.6184 20.8091 61.3723 20.8148 61.1488 20.8278C60.9254 20.84 60.7564 20.8586 60.6435 20.8822V23.7826H61.278ZM61.9483 27.7799C62.2083 27.7799 62.4601 27.749 62.7039 27.6889C62.9476 27.6288 63.1629 27.5305 63.3498 27.3964C63.5366 27.2623 63.6845 27.0982 63.7942 26.9032C63.9038 26.7083 63.9591 26.4767 63.9591 26.2086C63.9591 25.8755 63.8917 25.6074 63.7584 25.4043C63.6244 25.2012 63.4497 25.0427 63.2344 24.929C63.0191 24.8153 62.7778 24.7381 62.5097 24.6975C62.2416 24.6568 61.9735 24.6365 61.7054 24.6365H60.6451V27.6954C60.702 27.7116 60.7832 27.7238 60.8889 27.7319C60.9945 27.7401 61.1082 27.7482 61.2301 27.7563C61.352 27.7644 61.4779 27.7709 61.6079 27.775C61.7371 27.7783 61.8508 27.7799 61.9483 27.7799Z" fill="white"/>
<path d="M66.75 20.0293H71.3931V20.9311H67.7615V23.7219H71.0885V24.6237H67.7615V27.6582H71.4541V28.56H66.75V20.0293Z" fill="white"/>
<path d="M73.2812 20.1144C73.59 20.0413 73.9231 19.9926 74.2806 19.9682C74.638 19.9438 74.9915 19.9316 75.3408 19.9316C75.7145 19.9316 76.0939 19.9682 76.4807 20.0413C76.8666 20.1144 77.2184 20.2485 77.5344 20.4435C77.8513 20.6385 78.1088 20.9066 78.3087 21.2478C78.5077 21.589 78.6068 22.0237 78.6068 22.5518C78.6068 23.0717 78.5134 23.5105 78.3265 23.8679C78.1397 24.2254 77.8919 24.5163 77.5832 24.7397C77.2744 24.9631 76.921 25.124 76.5229 25.2207C76.1248 25.3182 75.7145 25.3669 75.2921 25.3669C75.2514 25.3669 75.184 25.3669 75.0914 25.3669C74.998 25.3669 74.9005 25.3653 74.7989 25.3604C74.6973 25.3563 74.5982 25.3507 74.5007 25.3417C74.4032 25.3336 74.3342 25.3255 74.2936 25.3174V28.559H73.2821V20.1144H73.2812ZM75.3652 20.8091C75.1539 20.8091 74.9508 20.8131 74.7558 20.8213C74.5609 20.8294 74.4065 20.8497 74.2927 20.8822V24.4163C74.3334 24.4326 74.3984 24.4432 74.4877 24.4472C74.5771 24.4513 74.6705 24.4553 74.768 24.4594C74.8655 24.4635 74.959 24.4659 75.0483 24.4659C75.1377 24.4659 75.2027 24.4659 75.2433 24.4659C75.5195 24.4659 75.7933 24.4399 76.0655 24.3863C76.3377 24.3335 76.5838 24.2384 76.8024 24.1003C77.0218 23.9622 77.1989 23.7672 77.3329 23.5153C77.467 23.2635 77.5336 22.9426 77.5336 22.5526C77.5336 22.2195 77.4702 21.9416 77.3451 21.7182C77.2192 21.4948 77.0526 21.3161 76.8455 21.182C76.6383 21.0479 76.4043 20.9529 76.1451 20.896C75.8851 20.8375 75.6252 20.8091 75.3652 20.8091Z" fill="white"/>
<path d="M85.3443 28.2071C85.1006 28.394 84.7918 28.524 84.4181 28.5971C84.0444 28.6702 83.6463 28.7068 83.2238 28.7068C82.712 28.7068 82.2326 28.6191 81.7858 28.4452C81.3389 28.2705 80.949 28.0048 80.6159 27.6466C80.2828 27.2891 80.0187 26.8325 79.8237 26.2751C79.6287 25.7186 79.5312 25.0589 79.5312 24.2944C79.5312 23.4982 79.6385 22.8222 79.8538 22.2649C80.0691 21.7084 80.3534 21.2534 80.7069 20.9C81.0603 20.5466 81.4559 20.289 81.8947 20.1265C82.3334 19.9641 82.7802 19.8828 83.2352 19.8828C83.7227 19.8828 84.1208 19.9096 84.4295 19.9616C84.7382 20.0144 85.0023 20.0859 85.2216 20.1745L84.9779 21.0763C84.5879 20.8813 84.0314 20.7838 83.3083 20.7838C82.9752 20.7838 82.6462 20.8447 82.3212 20.9666C81.9962 21.0885 81.7054 21.2875 81.4502 21.5638C81.1943 21.84 80.9888 22.2015 80.8344 22.6484C80.6801 23.0952 80.6029 23.6436 80.6029 24.2936C80.6029 24.8785 80.676 25.3904 80.8222 25.8291C80.9685 26.2678 81.17 26.6334 81.4251 26.9259C81.681 27.2184 81.9816 27.4378 82.3269 27.584C82.6722 27.7302 83.0475 27.8034 83.4546 27.8034C83.8202 27.8034 84.1386 27.7668 84.4108 27.6937C84.683 27.6206 84.9121 27.5271 85.0998 27.4134L85.3443 28.2071Z" fill="white"/>
<path d="M92.0597 22.7835L92.1328 21.8086H92.084L91.56 22.8079L87.4409 28.56H86.8438V20.0293H87.8552V25.8789L87.7699 26.8417H87.8187L88.3549 25.8424L92.474 20.0293H93.0711V28.56H92.0597V22.7835Z" fill="white"/>
<path d="M100.653 20.9311H97.9963V28.56H96.9848V20.9311H94.3281V20.0293H100.653V20.9311Z" fill="white"/>
<path d="M101.906 20.0293H106.549V20.9311H102.918V23.7219H106.245V24.6237H102.918V27.6582H106.61V28.56H101.906V20.0293Z" fill="white"/>
<path d="M113.95 20.9311H111.293V28.56H110.282V20.9311H107.625V20.0293H113.95V20.9311Z" fill="white"/>
</svg>
